<svg width="736" height="429" viewBox="0 0 736 429" xmlns="http://www.w3.org/2000/svg" xmlns:xlink="http://www.w3.org/1999/xlink"><title>pub_sub_flow</title><defs><rect id="a" width="122" height="32" rx="2"/><mask id="i" x="0" y="0" width="122" height="32" fill="#fff"><use xlink:href="#a"/></mask><rect id="b" width="104" height="32" rx="2"/><mask id="j" x="0" y="0" width="104" height="32" fill="#fff"><use xlink:href="#b"/></mask><rect id="c" width="142" height="48" rx="2"/><mask id="k" x="0" y="0" width="142" height="48" fill="#fff"><use xlink:href="#c"/></mask><rect id="d" width="104" height="32" rx="2"/><mask id="l" x="0" y="0" width="104" height="32" fill="#fff"><use xlink:href="#d"/></mask><rect id="e" width="142" height="48" rx="2"/><mask id="m" x="0" y="0" width="142" height="48" fill="#fff"><use xlink:href="#e"/></mask><rect id="f" width="84" height="32" rx="2"/><mask id="n" x="0" y="0" width="84" height="32" fill="#fff"><use xlink:href="#f"/></mask><rect id="g" width="104" height="32" rx="2"/><mask id="o" x="0" y="0" width="104" height="32" fill="#fff"><use xlink:href="#g"/></mask><rect id="h" width="142" height="48" rx="2"/><mask id="p" x="0" y="0" width="142" height="48" fill="#fff"><use xlink:href="#h"/></mask></defs><g fill="none" fill-rule="evenodd"><path fill="#FFF" d="M0 8h737v415H0z"/><g transform="translate(99 30)"><rect fill="#E1F5FE" y="125" width="530" height="114" rx="2"/><path d="M444.377 142.223c-.086.91-.422 1.62-1.008 2.13-.586.51-1.365.764-2.338.764-.68 0-1.278-.16-1.796-.483a3.172 3.172 0 0 1-1.198-1.374c-.281-.594-.428-1.283-.44-2.069v-.796c0-.805.143-1.514.428-2.127.286-.614.695-1.086 1.228-1.418.533-.332 1.15-.498 1.849-.498.941 0 1.699.255 2.273.767.574.512.908 1.235 1.002 2.168H442.9c-.07-.613-.249-1.056-.536-1.327-.287-.272-.708-.407-1.262-.407-.645 0-1.14.235-1.486.706-.345.47-.522 1.16-.53 2.071v.756c0 .922.165 1.625.495 2.11.33.484.814.726 1.45.726.582 0 1.02-.131 1.313-.393.293-.261.478-.697.556-1.306h1.477zm2.701 2.777h-1.424v-9h1.424v9zm1.283-3.229c0-.62.123-1.18.37-1.678a2.695 2.695 0 0 1 1.037-1.149c.445-.267.957-.401 1.535-.401.855 0 1.55.275 2.083.826.533.55.821 1.281.864 2.192l.006.334c0 .625-.12 1.183-.36 1.675-.24.493-.584.873-1.032 1.143-.447.27-.964.404-1.55.404-.894 0-1.61-.298-2.147-.893-.537-.596-.806-1.39-.806-2.382v-.07zm1.424.124c0 .652.135 1.163.404 1.532.27.369.645.553 1.125.553s.855-.187 1.123-.562c.267-.375.4-.924.4-1.647 0-.64-.137-1.148-.412-1.523a1.319 1.319 0 0 0-1.122-.562c-.465 0-.834.184-1.108.553-.273.37-.41.921-.41 1.656zm9.516 2.484c-.418.492-1.012.738-1.781.738-.688 0-1.208-.201-1.562-.603-.354-.403-.53-.985-.53-1.746v-4.108h1.424v4.09c0 .805.334 1.207 1.002 1.207.69 0 1.158-.248 1.4-.744v-4.553h1.424V145h-1.342l-.035-.621zm2.56-2.596c0-.976.227-1.76.68-2.352.453-.592 1.06-.888 1.822-.888.672 0 1.215.234 1.63.703V136h1.423v9h-1.289l-.07-.656c-.426.515-.994.773-1.705.773-.743 0-1.343-.299-1.802-.896-.46-.598-.689-1.41-.689-2.438zm1.424.123c0 .645.124 1.148.372 1.509s.6.542 1.058.542c.582 0 1.008-.26 1.277-.78v-2.706c-.262-.508-.683-.762-1.265-.762-.461 0-.817.183-1.067.548-.25.365-.375.915-.375 1.65zm10.225-.076V145h-1.483v-8.531h3.264c.953 0 1.71.248 2.27.744.561.496.841 1.152.841 1.969 0 .836-.274 1.486-.823 1.95-.549.466-1.317.698-2.306.698h-1.763zm0-1.19h1.781c.527 0 .93-.123 1.207-.371s.416-.607.416-1.076c0-.46-.14-.829-.422-1.104-.281-.276-.668-.417-1.16-.425h-1.822v2.977zm9.89 3.739c-.418.492-1.011.738-1.78.738-.688 0-1.209-.201-1.562-.603-.354-.403-.53-.985-.53-1.746v-4.108h1.423v4.09c0 .805.334 1.207 1.002 1.207.692 0 1.158-.248 1.4-.744v-4.553h1.424V145h-1.341l-.036-.621zm8.391-2.484c0 .984-.22 1.767-.66 2.35-.439.581-1.043.872-1.813.872-.742 0-1.32-.267-1.734-.803l-.07.686h-1.29v-9h1.424v3.27c.41-.485.963-.727 1.659-.727.773 0 1.38.287 1.822.861.441.575.662 1.377.662 2.409v.082zm-1.424-.124c0-.687-.12-1.203-.363-1.546-.242-.344-.594-.516-1.055-.516-.617 0-1.05.27-1.3.809v2.613c.253.55.69.826 1.312.826.445 0 .789-.166 1.031-.498.242-.332.367-.834.375-1.506v-.182zm3.018 3.961h-1.12l3.358-9.263h1.12l-3.358 9.263zm8.941-2.93c0-.374-.132-.663-.395-.866-.264-.204-.74-.409-1.427-.616-.688-.207-1.234-.437-1.64-.691-.778-.488-1.167-1.125-1.167-1.91 0-.688.28-1.254.841-1.7.56-.445 1.288-.667 2.183-.667.593 0 1.123.109 1.588.328.464.218.83.53 1.095.934.266.405.399.853.399 1.345h-1.477c0-.445-.14-.794-.419-1.046-.28-.252-.678-.378-1.198-.378-.484 0-.86.104-1.128.31-.268.208-.401.497-.401.868 0 .312.144.573.433.782.29.21.766.412 1.43.61.664.197 1.197.421 1.6.673.402.252.697.541.884.868.188.326.282.708.282 1.145 0 .711-.273 1.276-.818 1.696-.545.42-1.284.63-2.218.63a4.168 4.168 0 0 1-1.702-.343c-.517-.228-.92-.544-1.207-.946a2.358 2.358 0 0 1-.43-1.406h1.482c0 .484.16.86.48 1.125.32.266.78.398 1.377.398.516 0 .904-.104 1.164-.313.26-.21.39-.486.39-.83zm6.486 1.577c-.417.492-1.011.738-1.78.738-.688 0-1.209-.201-1.562-.603-.354-.403-.53-.985-.53-1.746v-4.108h1.423v4.09c0 .805.334 1.207 1.002 1.207.692 0 1.158-.248 1.4-.744v-4.553h1.424V145h-1.341l-.036-.621zm8.391-2.484c0 .984-.22 1.767-.66 2.35-.439.581-1.043.872-1.813.872-.742 0-1.32-.267-1.734-.803l-.07.686h-1.29v-9h1.425v3.27c.41-.485.962-.727 1.658-.727.773 0 1.38.287 1.822.861.441.575.662 1.377.662 2.409v.082zm-1.424-.124c0-.687-.12-1.203-.363-1.546-.242-.344-.594-.516-1.055-.516-.617 0-1.05.27-1.3.809v2.613c.253.55.69.826 1.312.826.445 0 .79-.166 1.031-.498.242-.332.367-.834.375-1.506v-.182z" fill="#000"/><path d="M175.5 136.5L176 30" stroke="#616161" stroke-linecap="round"/><path fill="#616161" d="M178.5 134.5l-.537-.5-2.463 2.65-2.463-2.65-.537.5 3 3.227z"/><path d="M175.5 192.5v-30.067" stroke="#616161" stroke-linecap="round"/><path fill="#616161" d="M178.5 190.5l-.537-.5-2.463 2.65-2.463-2.65-.537.5 3 3.227z"/><path d="M175.5 260.5v-39" stroke="#616161" stroke-linecap="round"/><path fill="#616161" d="M178.5 258.5l-.537-.5-2.463 2.65-2.463-2.65-.537.5 3 3.227z"/><path d="M175.5 317.5v-39" stroke="#616161" stroke-linecap="round"/><path fill="#616161" d="M178.5 315.5l-.537-.5-2.463 2.65-2.463-2.65-.537.5 3 3.227z"/><g transform="translate(112 196)"><use stroke="#E0E0E0" mask="url(#i)" stroke-width="2" fill="#FFF" xlink:href="#a"/><path d="M31.035 17.197c-.965-.277-1.667-.618-2.106-1.022a1.954 1.954 0 0 1-.66-1.497c0-.672.27-1.228.806-1.667.537-.44 1.236-.66 2.095-.66.586 0 1.108.114 1.567.34.46.227.815.54 1.067.938.252.398.378.834.378 1.307H33.05c0-.516-.164-.921-.492-1.216-.329-.295-.791-.443-1.39-.443-.554 0-.986.122-1.297.367-.31.244-.466.583-.466 1.016 0 .348.148.642.443.882.295.24.797.46 1.505.66.71.198 1.264.418 1.665.658.4.24.697.52.89.841.194.32.29.697.29 1.131 0 .691-.27 1.245-.808 1.661-.54.416-1.26.624-2.162.624a4.01 4.01 0 0 1-1.641-.337c-.508-.224-.9-.532-1.175-.923a2.252 2.252 0 0 1-.413-1.33h1.13c0 .516.191.923.572 1.222.381.299.89.448 1.527.448.593 0 1.048-.12 1.365-.363.316-.242.474-.572.474-.99 0-.418-.146-.741-.44-.97-.292-.228-.823-.454-1.593-.677zm8.35 3.176c-.422.496-1.041.744-1.858.744-.675 0-1.19-.196-1.544-.589-.353-.392-.532-.973-.536-1.743V14.66h1.084v4.096c0 .96.39 1.441 1.172 1.441.828 0 1.379-.308 1.652-.926v-4.61h1.084V21h-1.03l-.024-.627zm8.068-2.473c0 .97-.223 1.747-.668 2.335-.445.588-1.043.882-1.793.882-.8 0-1.42-.283-1.857-.85l-.053.733h-.996v-9h1.084v3.357c.437-.543 1.04-.814 1.81-.814s1.374.291 1.814.873c.44.582.66 1.379.66 2.39v.094zm-1.084-.123c0-.738-.142-1.308-.428-1.71-.285-.403-.695-.604-1.23-.604-.715 0-1.229.332-1.541.996v2.742c.332.664.85.996 1.553.996.52 0 .923-.2 1.213-.603.289-.403.433-1.008.433-1.817zm6.14 1.541c0-.293-.11-.52-.33-.682-.221-.162-.606-.302-1.155-.42-.548-.116-.984-.257-1.306-.421-.322-.164-.56-.36-.715-.586a1.402 1.402 0 0 1-.232-.809c0-.52.22-.959.66-1.318.44-.36 1-.539 1.684-.539.719 0 1.302.186 1.75.557.447.37.67.845.67 1.423h-1.09c0-.296-.126-.552-.378-.767-.252-.215-.569-.322-.952-.322-.394 0-.703.086-.926.257a.812.812 0 0 0-.334.674c0 .262.104.46.311.592.207.133.581.26 1.122.38.541.122.98.267 1.316.434.335.168.584.37.747.607.162.236.243.524.243.864 0 .567-.227 1.02-.68 1.362-.453.342-1.04.513-1.764.513-.507 0-.957-.09-1.347-.27a2.186 2.186 0 0 1-.917-.752 1.815 1.815 0 0 1-.331-1.046h1.084c.02.363.165.651.436.864.272.213.63.32 1.075.32.41 0 .74-.084.988-.25.248-.166.372-.387.372-.665zm5.04.914c.387 0 .724-.117 1.014-.351.289-.235.449-.527.48-.879h1.025c-.02.363-.144.709-.375 1.037a2.47 2.47 0 0 1-.922.785 2.663 2.663 0 0 1-1.222.293c-.863 0-1.55-.288-2.06-.864-.51-.576-.764-1.364-.764-2.364v-.182c0-.617.113-1.166.34-1.646a2.59 2.59 0 0 1 .975-1.12c.424-.265.925-.398 1.503-.398.71 0 1.302.213 1.772.639.471.425.722.978.753 1.658h-1.025a1.494 1.494 0 0 0-.466-1.01 1.45 1.45 0 0 0-1.034-.396c-.55 0-.978.198-1.28.594-.303.397-.454.97-.454 1.72v.205c0 .73.15 1.293.45 1.688.302.394.731.591 1.29.591zm6.803-4.6a3.248 3.248 0 0 0-.534-.04c-.71 0-1.193.303-1.447.908V21h-1.084v-6.34h1.055l.017.733c.356-.567.86-.85 1.512-.85.211 0 .371.027.48.082v1.008zM66.525 21h-1.084v-6.34h1.084V21zm-1.171-8.021a.65.65 0 0 1 .16-.446c.108-.12.267-.181.478-.181.211 0 .371.06.48.181a.64.64 0 0 1 .165.446.62.62 0 0 1-.164.439c-.11.117-.27.176-.48.176-.212 0-.37-.059-.478-.176a.626.626 0 0 1-.161-.44zm8.261 4.921c0 .965-.22 1.743-.662 2.332-.441.59-1.039.885-1.793.885-.77 0-1.375-.244-1.816-.732v3.052H68.26V14.66h.99l.053.703c.441-.547 1.054-.82 1.84-.82.761 0 1.364.287 1.807.861.444.575.665 1.373.665 2.397v.1zm-1.084-.123c0-.715-.152-1.279-.457-1.693-.304-.414-.722-.621-1.254-.621-.656 0-1.148.29-1.476.873v3.03c.324.577.82.866 1.488.866.52 0 .933-.206 1.24-.618.306-.412.46-1.024.46-1.837zm3.932-4.652v1.535h1.183v.838h-1.183v3.932c0 .254.053.444.158.571.106.127.285.19.54.19.124 0 .296-.023.515-.07V21a3.143 3.143 0 0 1-.832.117c-.485 0-.85-.146-1.096-.44-.246-.292-.37-.708-.37-1.247v-3.932h-1.153v-.838h1.154v-1.535h1.084zM80.09 21h-1.084v-6.34h1.084V21zm-1.172-8.021a.65.65 0 0 1 .161-.446c.108-.12.267-.181.478-.181.21 0 .37.06.48.181a.64.64 0 0 1 .164.446.62.62 0 0 1-.164.439c-.11.117-.27.176-.48.176-.211 0-.37-.059-.478-.176a.626.626 0 0 1-.161-.44zm2.62 4.792c0-.62.121-1.18.365-1.675a2.732 2.732 0 0 1 1.02-1.149c.435-.27.932-.404 1.491-.404.863 0 1.562.299 2.095.896.533.598.8 1.393.8 2.385v.076c0 .618-.119 1.171-.355 1.662-.236.49-.574.872-1.014 1.145-.439.273-.944.41-1.514.41-.86 0-1.556-.299-2.09-.896-.532-.598-.799-1.389-.799-2.373v-.077zm1.089.13c0 .703.163 1.267.49 1.693.325.426.762.638 1.309.638.55 0 .988-.215 1.312-.647.325-.432.487-1.036.487-1.814 0-.695-.165-1.258-.496-1.69a1.574 1.574 0 0 0-1.315-.647c-.535 0-.967.212-1.295.638-.328.426-.492 1.035-.492 1.828zm7.066-3.24l.036.796c.484-.61 1.117-.914 1.898-.914 1.34 0 2.016.756 2.027 2.268V21H92.57v-4.195c-.004-.457-.108-.795-.313-1.014-.205-.219-.525-.328-.958-.328-.352 0-.66.094-.926.281a1.91 1.91 0 0 0-.621.738V21h-1.084v-6.34h1.025z" fill="#212121"/></g><g transform="translate(121 73)"><use stroke="#E0E0E0" mask="url(#j)" stroke-width="2" fill="#F5F5F5" xlink:href="#b"/><path d="M30.03 12.469l2.79 6.96 2.788-6.96h1.46V21h-1.126v-3.322l.106-3.586-2.8 6.908h-.862l-2.795-6.89.111 3.568V21h-1.125v-8.531h1.453zm11.485 8.648c-.86 0-1.559-.282-2.098-.846-.54-.565-.809-1.32-.809-2.265v-.2c0-.628.12-1.19.36-1.684.241-.494.577-.88 1.009-1.16.431-.28.899-.419 1.403-.419.824 0 1.465.271 1.922.814.457.543.685 1.32.685 2.332v.452h-4.295c.016.625.199 1.13.548 1.514.35.385.794.577 1.333.577.383 0 .707-.078.973-.234.266-.156.498-.363.697-.621l.662.516c-.531.816-1.328 1.224-2.39 1.224zm-.135-5.683c-.438 0-.805.159-1.102.477-.297.318-.48.765-.55 1.339h3.175v-.082c-.03-.55-.18-.978-.445-1.28-.266-.303-.625-.454-1.078-.454zm7.553 3.884c0-.293-.11-.52-.331-.682-.221-.162-.606-.302-1.155-.42-.549-.116-.984-.257-1.306-.421-.323-.164-.56-.36-.715-.586a1.402 1.402 0 0 1-.232-.809c0-.52.22-.959.66-1.318.439-.36 1-.539 1.684-.539.719 0 1.302.186 1.75.557.446.37.67.845.67 1.423h-1.09c0-.296-.126-.552-.378-.767-.252-.215-.57-.322-.952-.322-.394 0-.703.086-.926.257a.812.812 0 0 0-.334.674c0 .262.104.46.31.592.208.133.582.26 1.123.38.541.122.98.267 1.315.434.336.168.585.37.747.607.163.236.244.524.244.864 0 .567-.227 1.02-.68 1.362-.453.342-1.041.513-1.764.513-.508 0-.957-.09-1.347-.27a2.18 2.18 0 0 1-.917-.752 1.815 1.815 0 0 1-.331-1.046h1.084c.02.363.165.651.436.864.272.213.63.32 1.075.32.41 0 .74-.084.988-.25.248-.166.372-.387.372-.665zm6.187 0c0-.293-.11-.52-.33-.682-.222-.162-.606-.302-1.155-.42-.55-.116-.985-.257-1.307-.421-.322-.164-.56-.36-.715-.586a1.402 1.402 0 0 1-.231-.809c0-.52.22-.959.659-1.318.44-.36 1.001-.539 1.685-.539.718 0 1.301.186 1.749.557.447.37.67.845.67 1.423h-1.09c0-.296-.125-.552-.377-.767-.252-.215-.57-.322-.952-.322-.395 0-.704.086-.926.257a.812.812 0 0 0-.334.674c0 .262.103.46.31.592.207.133.581.26 1.122.38.541.122.98.267 1.316.434.336.168.585.37.747.607.162.236.243.524.243.864a1.62 1.62 0 0 1-.68 1.362c-.453.342-1.04.513-1.763.513-.508 0-.957-.09-1.348-.27a2.193 2.193 0 0 1-.917-.752 1.815 1.815 0 0 1-.331-1.046h1.084c.02.363.165.651.437.864.271.213.63.32 1.075.32.41 0 .739-.084.987-.25.248-.166.372-.387.372-.665zM61.53 21c-.062-.125-.113-.348-.152-.668-.504.523-1.106.785-1.805.785-.625 0-1.137-.177-1.538-.53-.4-.354-.6-.802-.6-1.345 0-.66.25-1.173.752-1.538s1.209-.548 2.119-.548h1.054v-.498c0-.379-.113-.68-.34-.905-.226-.225-.56-.337-1.001-.337-.387 0-.711.098-.973.293-.262.195-.393.432-.393.709h-1.09c0-.316.113-.622.337-.917a2.3 2.3 0 0 1 .914-.7 3.075 3.075 0 0 1 1.269-.258c.73 0 1.303.183 1.717.548.414.365.629.868.644 1.509v2.918c0 .582.075 1.044.223 1.388V21H61.53zm-1.799-.826c.34 0 .663-.088.967-.264a1.59 1.59 0 0 0 .662-.685v-1.301h-.85c-1.327 0-1.991.388-1.991 1.166 0 .34.113.605.34.797.226.191.517.287.872.287zm4.155-2.397c0-.988.228-1.774.685-2.358.457-.584 1.063-.876 1.817-.876.773 0 1.377.273 1.81.82l.053-.703h.99v6.188c0 .82-.243 1.466-.73 1.94-.486.472-1.139.708-1.96.708a3.26 3.26 0 0 1-1.341-.293c-.438-.195-.772-.463-1.002-.803l.563-.65c.464.574 1.033.861 1.705.861.527 0 .938-.148 1.233-.445.295-.297.442-.715.442-1.254v-.545c-.433.5-1.025.75-1.775.75-.742 0-1.343-.299-1.802-.896-.459-.598-.688-1.412-.688-2.444zm1.09.123c0 .715.146 1.277.439 1.685.293.408.703.612 1.23.612.684 0 1.186-.31 1.506-.931V16.37c-.332-.605-.83-.908-1.494-.908-.527 0-.94.205-1.236.615-.297.41-.445 1.018-.445 1.822zm8.53 3.217c-.859 0-1.558-.282-2.097-.846-.539-.565-.808-1.32-.808-2.265v-.2c0-.628.12-1.19.36-1.684s.576-.88 1.008-1.16c.431-.28.9-.419 1.403-.419.824 0 1.465.271 1.922.814.457.543.685 1.32.685 2.332v.452h-4.294c.015.625.198 1.13.547 1.514.35.385.794.577 1.333.577.383 0 .707-.078.973-.234.266-.156.498-.363.697-.621l.662.516c-.53.816-1.328 1.224-2.39 1.224zm-.134-5.683c-.437 0-.805.159-1.101.477-.297.318-.481.765-.551 1.339h3.176v-.082c-.032-.55-.18-.978-.446-1.28-.265-.303-.625-.454-1.078-.454z" fill="#212121"/></g><g transform="translate(102)"><use stroke="#E0E0E0" mask="url(#k)" stroke-width="2" fill="#FFF" xlink:href="#c"/><path d="M25.333 13.08a5.333 5.333 0 1 1 0 10.668 5.333 5.333 0 0 1 0-10.668zm0 13.333c-3.56 0-10.667 1.787-10.667 5.333v2.667H36v-2.667c0-3.546-7.107-5.333-10.667-5.333" fill="#616161"/><path d="M57.115 25.06v3.34H55.99v-8.531h3.147c.933 0 1.665.238 2.194.715.53.476.794 1.107.794 1.892 0 .828-.259 1.466-.776 1.913-.518.448-1.26.671-2.224.671h-2.01zm0-.92h2.022c.601 0 1.062-.141 1.383-.425.32-.283.48-.692.48-1.227 0-.508-.16-.914-.48-1.219-.32-.305-.76-.463-1.319-.474h-2.086v3.345zm10.19 3.633c-.422.496-1.041.744-1.858.744-.676 0-1.19-.196-1.544-.589-.353-.392-.532-.973-.536-1.743V22.06h1.084v4.096c0 .96.39 1.441 1.172 1.441.828 0 1.379-.308 1.652-.926v-4.61h1.084V28.4h-1.03l-.024-.627zm8.068-2.473c0 .97-.223 1.747-.668 2.335-.445.588-1.043.882-1.793.882-.8 0-1.42-.283-1.857-.85l-.053.733h-.996v-9h1.084v3.357c.437-.543 1.04-.814 1.81-.814s1.374.291 1.814.873c.44.582.659 1.379.659 2.39v.094zm-1.084-.123c0-.738-.143-1.308-.428-1.71-.285-.403-.695-.604-1.23-.604-.715 0-1.229.332-1.541.996v2.742c.332.664.85.996 1.553.996.52 0 .923-.2 1.212-.603.29-.403.434-1.008.434-1.817zm3.627 3.223h-1.084v-9h1.084v9zm2.912 0h-1.084v-6.34h1.084v6.34zm-1.172-8.021a.65.65 0 0 1 .161-.446c.108-.12.267-.181.478-.181.21 0 .371.06.48.181a.64.64 0 0 1 .164.446.62.62 0 0 1-.164.439c-.109.117-.27.176-.48.176-.211 0-.37-.059-.478-.176a.626.626 0 0 1-.16-.44zm6.598 6.34c0-.294-.11-.521-.331-.683-.22-.162-.606-.302-1.154-.42-.55-.116-.985-.257-1.307-.421-.322-.164-.56-.36-.715-.586a1.402 1.402 0 0 1-.231-.809c0-.52.22-.959.659-1.318.44-.36 1-.539 1.684-.539.72 0 1.302.186 1.75.557.447.37.67.845.67 1.423h-1.09c0-.296-.126-.552-.377-.767-.252-.215-.57-.322-.953-.322-.394 0-.703.086-.925.257a.812.812 0 0 0-.334.674c0 .262.103.46.31.592.207.133.581.26 1.122.38.541.122.98.267 1.316.434.336.168.585.37.747.607.162.236.243.524.243.864 0 .567-.227 1.02-.68 1.362-.453.342-1.04.513-1.763.513-.508 0-.957-.09-1.348-.27a2.193 2.193 0 0 1-.917-.752 1.815 1.815 0 0 1-.331-1.046h1.084c.02.363.165.651.436.864.272.213.63.32 1.076.32.41 0 .739-.084.987-.25.248-.166.372-.387.372-.665zm3.58-3.891c.48-.59 1.105-.885 1.875-.885 1.34 0 2.016.756 2.027 2.268V28.4h-1.084v-4.195c-.004-.457-.108-.795-.313-1.014-.205-.219-.525-.328-.958-.328-.352 0-.66.094-.926.281a1.91 1.91 0 0 0-.621.738V28.4H88.75v-9h1.084v3.428zm8.156 5.69c-.86 0-1.558-.283-2.097-.847-.54-.565-.809-1.32-.809-2.265v-.2c0-.628.12-1.19.36-1.684s.577-.88 1.008-1.16c.432-.28.9-.419 1.403-.419.825 0 1.465.271 1.922.814.457.543.686 1.32.686 2.332v.452h-4.295c.016.625.198 1.13.548 1.514.35.385.794.577 1.333.577.383 0 .707-.078.972-.234.266-.156.499-.363.698-.621l.662.516c-.531.816-1.328 1.224-2.39 1.224zm-.135-5.684c-.437 0-.804.159-1.101.477-.297.318-.48.765-.55 1.339h3.175v-.082c-.031-.55-.18-.978-.445-1.28-.266-.303-.625-.454-1.079-.454zm6.926.199a3.248 3.248 0 0 0-.533-.041c-.71 0-1.193.303-1.447.908v4.5h-1.084v-6.34h1.054l.018.733c.356-.567.86-.85 1.512-.85.21 0 .37.027.48.082v1.008z" fill="#212121"/></g><g transform="translate(121 265)"><use stroke="#E0E0E0" mask="url(#l)" stroke-width="2" fill="#F5F5F5" xlink:href="#d"/><path d="M30.03 12.469l2.79 6.96 2.788-6.96h1.46V21h-1.126v-3.322l.106-3.586-2.8 6.908h-.862l-2.795-6.89.111 3.568V21h-1.125v-8.531h1.453zm11.485 8.648c-.86 0-1.559-.282-2.098-.846-.54-.565-.809-1.32-.809-2.265v-.2c0-.628.12-1.19.36-1.684.241-.494.577-.88 1.009-1.16.431-.28.899-.419 1.403-.419.824 0 1.465.271 1.922.814.457.543.685 1.32.685 2.332v.452h-4.295c.016.625.199 1.13.548 1.514.35.385.794.577 1.333.577.383 0 .707-.078.973-.234.266-.156.498-.363.697-.621l.662.516c-.531.816-1.328 1.224-2.39 1.224zm-.135-5.683c-.438 0-.805.159-1.102.477-.297.318-.48.765-.55 1.339h3.175v-.082c-.03-.55-.18-.978-.445-1.28-.266-.303-.625-.454-1.078-.454zm7.553 3.884c0-.293-.11-.52-.331-.682-.221-.162-.606-.302-1.155-.42-.549-.116-.984-.257-1.306-.421-.323-.164-.56-.36-.715-.586a1.402 1.402 0 0 1-.232-.809c0-.52.22-.959.66-1.318.439-.36 1-.539 1.684-.539.719 0 1.302.186 1.75.557.446.37.67.845.67 1.423h-1.09c0-.296-.126-.552-.378-.767-.252-.215-.57-.322-.952-.322-.394 0-.703.086-.926.257a.812.812 0 0 0-.334.674c0 .262.104.46.31.592.208.133.582.26 1.123.38.541.122.98.267 1.315.434.336.168.585.37.747.607.163.236.244.524.244.864 0 .567-.227 1.02-.68 1.362-.453.342-1.041.513-1.764.513-.508 0-.957-.09-1.347-.27a2.18 2.18 0 0 1-.917-.752 1.815 1.815 0 0 1-.331-1.046h1.084c.02.363.165.651.436.864.272.213.63.32 1.075.32.41 0 .74-.084.988-.25.248-.166.372-.387.372-.665zm6.187 0c0-.293-.11-.52-.33-.682-.222-.162-.606-.302-1.155-.42-.55-.116-.985-.257-1.307-.421-.322-.164-.56-.36-.715-.586a1.402 1.402 0 0 1-.231-.809c0-.52.22-.959.659-1.318.44-.36 1.001-.539 1.685-.539.718 0 1.301.186 1.749.557.447.37.67.845.67 1.423h-1.09c0-.296-.125-.552-.377-.767-.252-.215-.57-.322-.952-.322-.395 0-.704.086-.926.257a.812.812 0 0 0-.334.674c0 .262.103.46.31.592.207.133.581.26 1.122.38.541.122.98.267 1.316.434.336.168.585.37.747.607.162.236.243.524.243.864a1.62 1.62 0 0 1-.68 1.362c-.453.342-1.04.513-1.763.513-.508 0-.957-.09-1.348-.27a2.193 2.193 0 0 1-.917-.752 1.815 1.815 0 0 1-.331-1.046h1.084c.02.363.165.651.437.864.271.213.63.32 1.075.32.41 0 .739-.084.987-.25.248-.166.372-.387.372-.665zM61.53 21c-.062-.125-.113-.348-.152-.668-.504.523-1.106.785-1.805.785-.625 0-1.137-.177-1.538-.53-.4-.354-.6-.802-.6-1.345 0-.66.25-1.173.752-1.538s1.209-.548 2.119-.548h1.054v-.498c0-.379-.113-.68-.34-.905-.226-.225-.56-.337-1.001-.337-.387 0-.711.098-.973.293-.262.195-.393.432-.393.709h-1.09c0-.316.113-.622.337-.917a2.3 2.3 0 0 1 .914-.7 3.075 3.075 0 0 1 1.269-.258c.73 0 1.303.183 1.717.548.414.365.629.868.644 1.509v2.918c0 .582.075 1.044.223 1.388V21H61.53zm-1.799-.826c.34 0 .663-.088.967-.264a1.59 1.59 0 0 0 .662-.685v-1.301h-.85c-1.327 0-1.991.388-1.991 1.166 0 .34.113.605.34.797.226.191.517.287.872.287zm4.155-2.397c0-.988.228-1.774.685-2.358.457-.584 1.063-.876 1.817-.876.773 0 1.377.273 1.81.82l.053-.703h.99v6.188c0 .82-.243 1.466-.73 1.94-.486.472-1.139.708-1.96.708a3.26 3.26 0 0 1-1.341-.293c-.438-.195-.772-.463-1.002-.803l.563-.65c.464.574 1.033.861 1.705.861.527 0 .938-.148 1.233-.445.295-.297.442-.715.442-1.254v-.545c-.433.5-1.025.75-1.775.75-.742 0-1.343-.299-1.802-.896-.459-.598-.688-1.412-.688-2.444zm1.09.123c0 .715.146 1.277.439 1.685.293.408.703.612 1.23.612.684 0 1.186-.31 1.506-.931V16.37c-.332-.605-.83-.908-1.494-.908-.527 0-.94.205-1.236.615-.297.41-.445 1.018-.445 1.822zm8.53 3.217c-.859 0-1.558-.282-2.097-.846-.539-.565-.808-1.32-.808-2.265v-.2c0-.628.12-1.19.36-1.684s.576-.88 1.008-1.16c.431-.28.9-.419 1.403-.419.824 0 1.465.271 1.922.814.457.543.685 1.32.685 2.332v.452h-4.294c.015.625.198 1.13.547 1.514.35.385.794.577 1.333.577.383 0 .707-.078.973-.234.266-.156.498-.363.697-.621l.662.516c-.53.816-1.328 1.224-2.39 1.224zm-.134-5.683c-.437 0-.805.159-1.101.477-.297.318-.481.765-.551 1.339h3.176v-.082c-.032-.55-.18-.978-.446-1.28-.265-.303-.625-.454-1.078-.454z" fill="#212121"/></g><g transform="translate(273 139)"><use stroke="#E0E0E0" mask="url(#m)" stroke-width="2" fill="#FFF" xlink:href="#e"/><path d="M57.443 12.869l2.79 6.96 2.788-6.96h1.46V21.4h-1.126v-3.322l.106-3.586-2.8 6.908h-.862l-2.795-6.89.111 3.568V21.4H55.99v-8.531h1.453zm11.485 8.648c-.86 0-1.559-.282-2.098-.846-.539-.565-.809-1.32-.809-2.265v-.2c0-.628.12-1.19.36-1.684.241-.494.577-.88 1.009-1.16.431-.28.9-.419 1.403-.419.824 0 1.465.271 1.922.814.457.543.685 1.32.685 2.332v.452h-4.295c.016.625.199 1.13.548 1.514.35.385.794.577 1.333.577.383 0 .707-.078.973-.234.266-.156.498-.363.697-.621l.662.516c-.53.816-1.328 1.224-2.39 1.224zm-.135-5.683c-.438 0-.805.159-1.102.477-.296.318-.48.765-.55 1.339h3.175v-.082c-.03-.55-.18-.978-.445-1.28-.266-.303-.625-.454-1.078-.454zm7.553 3.884c0-.293-.11-.52-.331-.682-.221-.162-.606-.302-1.155-.42-.548-.116-.984-.257-1.306-.421-.323-.164-.56-.36-.715-.586a1.402 1.402 0 0 1-.232-.809c0-.52.22-.959.66-1.318.44-.36 1-.539 1.684-.539.719 0 1.302.186 1.75.557.446.37.67.845.67 1.423h-1.09c0-.296-.126-.552-.378-.767-.252-.215-.569-.322-.952-.322-.394 0-.703.086-.926.257a.812.812 0 0 0-.334.674c0 .262.104.46.311.592.207.133.581.26 1.122.38.541.122.98.267 1.315.434.336.168.585.37.748.607.162.236.243.524.243.864 0 .567-.227 1.02-.68 1.362-.453.342-1.041.513-1.764.513-.507 0-.957-.09-1.347-.27a2.18 2.18 0 0 1-.917-.752 1.815 1.815 0 0 1-.331-1.046h1.084c.02.363.165.651.436.864.272.213.63.32 1.075.32.41 0 .74-.084.988-.25.248-.166.372-.387.372-.665zm6.187 0c0-.293-.11-.52-.33-.682-.222-.162-.606-.302-1.155-.42-.549-.116-.985-.257-1.307-.421-.322-.164-.56-.36-.715-.586a1.402 1.402 0 0 1-.231-.809c0-.52.22-.959.66-1.318.439-.36 1-.539 1.684-.539.718 0 1.301.186 1.749.557.447.37.67.845.67 1.423h-1.09c0-.296-.125-.552-.377-.767-.252-.215-.57-.322-.952-.322-.395 0-.703.086-.926.257a.812.812 0 0 0-.334.674c0 .262.103.46.31.592.207.133.582.26 1.123.38.54.122.979.267 1.315.434.336.168.585.37.747.607.162.236.243.524.243.864a1.62 1.62 0 0 1-.68 1.362c-.453.342-1.04.513-1.763.513-.508 0-.957-.09-1.348-.27a2.193 2.193 0 0 1-.917-.752 1.815 1.815 0 0 1-.33-1.046h1.083c.02.363.165.651.437.864.271.213.63.32 1.075.32.41 0 .74-.084.987-.25.248-.166.372-.387.372-.665zm6.41 1.682c-.062-.125-.113-.348-.152-.668-.504.523-1.105.785-1.805.785-.625 0-1.137-.177-1.538-.53-.4-.354-.6-.802-.6-1.345 0-.66.25-1.173.753-1.538.502-.365 1.208-.548 2.118-.548h1.054v-.498c0-.379-.113-.68-.34-.905-.226-.225-.56-.337-1.001-.337-.387 0-.711.098-.973.293-.262.195-.393.432-.393.709h-1.09c0-.316.113-.622.337-.917a2.3 2.3 0 0 1 .915-.7 3.075 3.075 0 0 1 1.268-.258c.73 0 1.303.183 1.717.548.414.365.629.868.644 1.509v2.918c0 .582.075 1.044.223 1.388v.094h-1.137zm-1.798-.826c.34 0 .662-.088.966-.264a1.59 1.59 0 0 0 .662-.685v-1.301h-.85c-1.327 0-1.991.388-1.991 1.166 0 .34.113.605.34.797.226.191.517.287.873.287zm4.154-2.397c0-.988.228-1.774.685-2.358.457-.584 1.063-.876 1.817-.876.773 0 1.377.273 1.81.82l.053-.703h.99v6.188c0 .82-.243 1.466-.73 1.94-.486.472-1.139.708-1.96.708a3.26 3.26 0 0 1-1.341-.293c-.437-.195-.771-.463-1.002-.803l.563-.65c.464.574 1.033.861 1.705.861.527 0 .938-.148 1.233-.445.295-.297.442-.715.442-1.254v-.545c-.433.5-1.025.75-1.775.75-.742 0-1.343-.299-1.802-.896-.459-.598-.688-1.412-.688-2.444zm1.09.123c0 .715.146 1.277.44 1.685.292.408.702.612 1.23.612.683 0 1.185-.31 1.505-.931V16.77c-.332-.605-.83-.908-1.494-.908-.527 0-.94.205-1.236.615-.297.41-.445 1.018-.445 1.822zm8.53 3.217c-.858 0-1.558-.282-2.097-.846-.539-.565-.808-1.32-.808-2.265v-.2c0-.628.12-1.19.36-1.684s.576-.88 1.008-1.16c.431-.28.9-.419 1.403-.419.824 0 1.465.271 1.922.814.457.543.686 1.32.686 2.332v.452h-4.295c.015.625.198 1.13.548 1.514.35.385.793.577 1.333.577.382 0 .707-.078.972-.234.266-.156.498-.363.697-.621l.663.516c-.532.816-1.329 1.224-2.391 1.224zm-.134-5.683c-.437 0-.805.159-1.101.477-.297.318-.48.765-.551 1.339h3.176v-.082c-.032-.55-.18-.978-.446-1.28-.265-.303-.625-.454-1.078-.454zM58.504 31.997c-.965-.277-1.667-.618-2.107-1.022a1.954 1.954 0 0 1-.659-1.497c0-.672.269-1.228.806-1.667.537-.44 1.235-.66 2.095-.66.586 0 1.108.114 1.567.34.459.227.815.54 1.066.938.252.398.378.834.378 1.307h-1.13c0-.516-.165-.921-.493-1.216-.328-.295-.79-.443-1.388-.443-.555 0-.988.122-1.298.367-.31.244-.466.583-.466 1.016 0 .348.147.642.442.882.295.24.797.46 1.506.66.71.198 1.264.418 1.664.658.4.24.698.52.89.841.194.32.291.697.291 1.131 0 .691-.27 1.245-.809 1.661-.539.416-1.26.624-2.162.624a4.01 4.01 0 0 1-1.64-.337c-.508-.224-.9-.532-1.175-.923a2.252 2.252 0 0 1-.413-1.33h1.13c0 .516.191.923.572 1.222.38.299.89.448 1.526.448.594 0 1.05-.12 1.365-.363.317-.242.475-.572.475-.99 0-.418-.146-.741-.44-.97-.292-.228-.824-.454-1.593-.677zm5.906-4.072v1.535h1.184v.838H64.41v3.932c0 .254.053.444.158.571.106.127.286.19.54.19.124 0 .296-.023.515-.07v.879a3.143 3.143 0 0 1-.832.117c-.484 0-.85-.146-1.096-.44-.246-.292-.369-.708-.369-1.247v-3.932h-1.154v-.838h1.154v-1.535h1.084zm2.045 4.646c0-.62.122-1.18.366-1.675a2.732 2.732 0 0 1 1.02-1.149c.435-.27.932-.404 1.491-.404.863 0 1.562.299 2.095.896.533.598.8 1.393.8 2.385v.076c0 .618-.119 1.171-.355 1.662-.236.49-.574.872-1.014 1.145a2.81 2.81 0 0 1-1.514.41c-.86 0-1.556-.299-2.09-.896-.532-.598-.799-1.389-.799-2.373v-.077zm1.09.13c0 .703.163 1.267.49 1.693.325.426.762.638 1.309.638.55 0 .988-.215 1.312-.647.324-.432.487-1.036.487-1.814 0-.695-.165-1.258-.496-1.69a1.574 1.574 0 0 0-1.315-.647c-.535 0-.967.212-1.295.638-.328.426-.492 1.035-.492 1.828zm9.105-2.268a3.248 3.248 0 0 0-.533-.041c-.71 0-1.193.303-1.447.908v4.5h-1.084v-6.34h1.055l.017.733c.356-.567.86-.85 1.512-.85.21 0 .371.027.48.082v1.008zm4.676 5.367c-.062-.125-.113-.348-.152-.668-.504.523-1.106.785-1.805.785-.625 0-1.138-.177-1.538-.53-.4-.354-.6-.802-.6-1.345 0-.66.25-1.173.752-1.538s1.208-.548 2.119-.548h1.054v-.498c0-.379-.113-.68-.34-.905-.226-.225-.56-.337-1.002-.337-.386 0-.71.098-.972.293-.262.195-.393.432-.393.709h-1.09c0-.316.113-.622.337-.917a2.3 2.3 0 0 1 .914-.7 3.075 3.075 0 0 1 1.269-.258c.73 0 1.303.183 1.717.548.414.365.629.868.644 1.509v2.918c0 .582.074 1.044.223 1.388v.094h-1.137zm-1.799-.826c.34 0 .662-.088.967-.264a1.59 1.59 0 0 0 .662-.685v-1.301h-.85c-1.327 0-1.992.388-1.992 1.166 0 .34.114.605.34.797.227.191.518.287.873.287zm4.155-2.397c0-.988.228-1.774.685-2.358.457-.584 1.063-.876 1.817-.876.773 0 1.377.273 1.81.82l.053-.703h.99v6.188c0 .82-.243 1.466-.73 1.94-.486.472-1.139.708-1.96.708a3.26 3.26 0 0 1-1.341-.293c-.438-.195-.772-.463-1.002-.803l.562-.65c.465.574 1.034.861 1.705.861.528 0 .939-.148 1.234-.445.295-.297.442-.715.442-1.254v-.545c-.433.5-1.025.75-1.775.75-.742 0-1.343-.299-1.802-.896-.459-.598-.688-1.412-.688-2.444zm1.09.123c0 .715.146 1.277.439 1.685.293.408.703.612 1.23.612.684 0 1.186-.31 1.506-.931V31.17c-.332-.605-.83-.908-1.494-.908-.527 0-.94.205-1.236.615-.297.41-.446 1.018-.446 1.822zm8.53 3.217c-.859 0-1.558-.282-2.097-.846-.539-.565-.809-1.32-.809-2.265v-.2c0-.628.12-1.19.36-1.684.241-.494.577-.88 1.009-1.16.431-.28.9-.419 1.403-.419.824 0 1.465.271 1.922.814.457.543.685 1.32.685 2.332v.452H91.48c.016.625.199 1.13.548 1.514.35.385.794.577 1.333.577.383 0 .707-.078.973-.234.266-.156.498-.363.697-.621l.662.516c-.53.816-1.328 1.224-2.39 1.224zm-.134-5.683c-.438 0-.805.159-1.102.477-.296.318-.48.765-.55 1.339h3.175v-.082c-.03-.55-.18-.978-.445-1.28-.266-.303-.625-.454-1.078-.454z" fill="#212121"/><path d="M21 25h2v-2h-2v2zm-2 1h20v-4H19v4zm2-7h2v-2h-2v2zm-2 1h20v-4H19v4zm2 11h2v-2h-2v2zm-2 1h20v-4H19v4z" fill="#616161"/></g><path fill="#616161" d="M265.637 150.863l-.5.538 2.65 2.462-2.65 2.463.5.537 3.226-3z"/><path d="M211 154h57.009" stroke="#616161"/><g transform="translate(131 139)"><use stroke="#E0E0E0" mask="url(#n)" stroke-width="2" fill="#FFF" xlink:href="#f"/><path d="M34.21 13.395h-2.742V21h-1.12v-7.605h-2.736v-.926h6.598v.926zm.228 4.376c0-.62.123-1.18.367-1.675a2.732 2.732 0 0 1 1.02-1.149c.435-.27.932-.404 1.49-.404.864 0 1.562.299 2.095.896.533.598.8 1.393.8 2.385v.076c0 .618-.118 1.171-.355 1.662-.236.49-.574.872-1.013 1.145-.44.273-.945.41-1.515.41-.86 0-1.556-.299-2.089-.896-.533-.598-.8-1.389-.8-2.373v-.077zm1.09.13c0 .703.163 1.267.49 1.693.326.426.762.638 1.31.638.55 0 .987-.215 1.312-.647.324-.432.486-1.036.486-1.814 0-.695-.165-1.258-.495-1.69a1.574 1.574 0 0 0-1.316-.647c-.535 0-.966.212-1.294.638-.329.426-.493 1.035-.493 1.828zm11.397 0c0 .964-.22 1.742-.662 2.331-.442.59-1.04.885-1.793.885-.77 0-1.375-.244-1.817-.732v3.052H41.57V14.66h.99l.053.703c.442-.547 1.055-.82 1.84-.82.762 0 1.364.287 1.808.861.443.575.665 1.373.665 2.397v.1zm-1.084-.124c0-.715-.153-1.279-.457-1.693-.305-.414-.723-.621-1.254-.621-.656 0-1.149.29-1.477.873v3.03c.325.577.82.866 1.489.866.52 0 .932-.206 1.239-.618.307-.412.46-1.024.46-1.837zM49.479 21h-1.083v-6.34h1.083V21zm-1.171-8.021a.65.65 0 0 1 .16-.446c.108-.12.267-.181.478-.181.211 0 .371.06.48.181a.64.64 0 0 1 .165.446.62.62 0 0 1-.164.439c-.11.117-.27.176-.48.176-.212 0-.37-.059-.478-.176a.626.626 0 0 1-.161-.44zm5.449 7.253c.387 0 .724-.117 1.014-.351.289-.235.449-.527.48-.879h1.025c-.02.363-.144.709-.375 1.037a2.47 2.47 0 0 1-.922.785 2.663 2.663 0 0 1-1.222.293c-.863 0-1.55-.288-2.06-.864-.51-.576-.764-1.364-.764-2.364v-.182c0-.617.113-1.166.34-1.646a2.59 2.59 0 0 1 .975-1.12c.424-.265.925-.398 1.503-.398.71 0 1.302.213 1.772.639.471.425.722.978.753 1.658h-1.025a1.494 1.494 0 0 0-.466-1.01 1.45 1.45 0 0 0-1.034-.396c-.55 0-.978.198-1.28.594-.303.397-.454.97-.454 1.72v.205c0 .73.15 1.293.45 1.688.302.394.731.591 1.29.591z" fill="#212121"/></g><path fill="#616161" d="M241.226 210l.5.537-2.65 2.463 2.65 2.463-.5.537-3.226-3z"/><path stroke="#616161" d="M238 346h107.005V212.94h-106.01"/><g transform="translate(292 265)"><use stroke="#E0E0E0" mask="url(#o)" stroke-width="2" fill="#F5F5F5" xlink:href="#g"/><path d="M47.605 18.773h-3.574L43.23 21h-1.16l3.257-8.531h.985L49.574 21H48.42l-.815-2.227zm-3.234-.925h2.9l-1.453-3.99-1.447 3.99zm8.725 2.384c.386 0 .724-.117 1.013-.351.29-.235.45-.527.48-.879h1.026c-.02.363-.144.709-.375 1.037a2.47 2.47 0 0 1-.923.785 2.663 2.663 0 0 1-1.221.293c-.864 0-1.55-.288-2.06-.864-.51-.576-.765-1.364-.765-2.364v-.182c0-.617.114-1.166.34-1.646.227-.48.552-.854.976-1.12.424-.265.925-.398 1.503-.398.71 0 1.302.213 1.772.639.471.425.722.978.753 1.658H54.59a1.494 1.494 0 0 0-.466-1.01 1.45 1.45 0 0 0-1.034-.396c-.55 0-.978.198-1.28.594-.303.397-.455.97-.455 1.72v.205c0 .73.15 1.293.452 1.688.3.394.73.591 1.289.591zm5.508-2.168l-.68.71V21H56.84v-9h1.084v5.443l.58-.697 1.975-2.086h1.318l-2.467 2.65L62.084 21h-1.272l-2.208-2.936z" fill="#212121"/></g><g transform="translate(102 322)"><use stroke="#E0E0E0" mask="url(#p)" stroke-width="2" fill="#FFF" xlink:href="#h"/><path d="M58.504 24.597c-.965-.277-1.667-.618-2.107-1.022a1.954 1.954 0 0 1-.659-1.497c0-.672.269-1.228.806-1.667.537-.44 1.235-.66 2.095-.66.586 0 1.108.114 1.567.34.459.227.815.54 1.066.938.252.398.378.834.378 1.307h-1.13c0-.516-.165-.921-.493-1.216-.328-.295-.79-.443-1.388-.443-.555 0-.988.122-1.298.367-.31.244-.466.583-.466 1.016 0 .348.147.642.442.882.295.24.797.46 1.506.66.71.198 1.264.418 1.664.658.4.24.698.52.89.841.194.32.291.697.291 1.131 0 .691-.27 1.245-.809 1.661-.539.416-1.26.624-2.162.624a4.01 4.01 0 0 1-1.64-.337c-.508-.224-.9-.532-1.175-.923a2.252 2.252 0 0 1-.413-1.33h1.13c0 .516.191.923.572 1.222.38.299.89.448 1.526.448.594 0 1.05-.12 1.365-.363.317-.242.475-.572.475-.99 0-.418-.146-.741-.44-.97-.292-.228-.824-.454-1.593-.677zm8.35 3.176c-.422.496-1.041.744-1.858.744-.676 0-1.19-.196-1.544-.589-.353-.392-.532-.973-.536-1.743V22.06H64v4.096c0 .96.39 1.441 1.172 1.441.828 0 1.379-.308 1.652-.926v-4.61h1.084V28.4h-1.031l-.023-.627zm8.068-2.473c0 .97-.223 1.747-.668 2.335-.445.588-1.043.882-1.793.882-.8 0-1.42-.283-1.857-.85l-.053.733h-.996v-9h1.084v3.357c.437-.543 1.04-.814 1.81-.814s1.374.291 1.814.873c.44.582.659 1.379.659 2.39v.094zm-1.084-.123c0-.738-.143-1.308-.428-1.71-.285-.403-.695-.604-1.23-.604-.715 0-1.229.332-1.541.996v2.742c.332.664.85.996 1.552.996.52 0 .924-.2 1.213-.603.29-.403.434-1.008.434-1.817zm6.14 1.541c0-.293-.11-.52-.33-.682-.221-.162-.606-.302-1.155-.42-.549-.116-.984-.257-1.306-.421-.323-.164-.561-.36-.715-.586a1.402 1.402 0 0 1-.232-.809c0-.52.22-.959.66-1.318.439-.36 1-.539 1.684-.539.719 0 1.302.186 1.749.557.447.37.67.845.67 1.423h-1.089c0-.296-.126-.552-.378-.767-.252-.215-.57-.322-.952-.322-.395 0-.703.086-.926.257a.812.812 0 0 0-.334.674c0 .262.104.46.31.592.208.133.582.26 1.123.38.54.122.98.267 1.315.434.336.168.585.37.747.607.162.236.243.524.243.864a1.62 1.62 0 0 1-.68 1.362c-.452.342-1.04.513-1.763.513-.508 0-.957-.09-1.348-.27a2.193 2.193 0 0 1-.917-.752 1.815 1.815 0 0 1-.33-1.046h1.083c.02.363.165.651.437.864.271.213.63.32 1.075.32.41 0 .74-.084.987-.25.248-.166.373-.387.373-.665zm5.04.914c.386 0 .724-.117 1.013-.351.29-.235.45-.527.48-.879h1.026c-.02.363-.144.709-.375 1.037a2.47 2.47 0 0 1-.923.785 2.663 2.663 0 0 1-1.221.293c-.864 0-1.55-.288-2.06-.864-.51-.576-.765-1.364-.765-2.364v-.182c0-.617.114-1.166.34-1.646.227-.48.552-.854.976-1.12.424-.265.925-.398 1.503-.398.71 0 1.301.213 1.772.639.47.425.722.978.753 1.658h-1.025a1.494 1.494 0 0 0-.466-1.01 1.45 1.45 0 0 0-1.034-.396c-.551 0-.978.198-1.28.594-.303.397-.455.97-.455 1.72v.205c0 .73.15 1.293.452 1.688.3.394.73.591 1.289.591zm6.802-4.6a3.248 3.248 0 0 0-.533-.04c-.71 0-1.193.303-1.447.908v4.5h-1.084v-6.34h1.055l.017.733c.356-.567.86-.85 1.512-.85.21 0 .37.027.48.082v1.008zm2.174 5.368H92.91v-6.34h1.084v6.34zm-1.172-8.021a.65.65 0 0 1 .161-.446c.108-.12.267-.181.478-.181.21 0 .371.06.48.181a.64.64 0 0 1 .164.446.62.62 0 0 1-.164.439c-.109.117-.27.176-.48.176-.211 0-.37-.059-.478-.176a.626.626 0 0 1-.16-.44zm8.274 4.921c0 .97-.223 1.747-.668 2.335-.446.588-1.043.882-1.793.882-.801 0-1.42-.283-1.858-.85l-.052.733h-.996v-9h1.084v3.357c.437-.543 1.04-.814 1.81-.814s1.374.291 1.814.873c.439.582.659 1.379.659 2.39v.094zm-1.084-.123c0-.738-.143-1.308-.428-1.71-.285-.403-.695-.604-1.23-.604-.715 0-1.229.332-1.541.996v2.742c.332.664.85.996 1.552.996.52 0 .924-.2 1.213-.603.29-.403.434-1.008.434-1.817zm5.08 3.34c-.86 0-1.559-.282-2.098-.846-.539-.565-.808-1.32-.808-2.265v-.2c0-.628.12-1.19.36-1.684s.576-.88 1.008-1.16c.431-.28.9-.419 1.403-.419.824 0 1.465.271 1.922.814.457.543.685 1.32.685 2.332v.452h-4.294c.015.625.198 1.13.547 1.514.35.385.794.577 1.333.577.383 0 .707-.078.973-.234.266-.156.498-.363.697-.621l.662.516c-.53.816-1.328 1.224-2.39 1.224zm-.135-5.683c-.437 0-.805.159-1.102.477-.296.318-.48.765-.55 1.339h3.175v-.082c-.03-.55-.18-.978-.445-1.28-.265-.303-.625-.454-1.078-.454zm6.926.199a3.248 3.248 0 0 0-.533-.041c-.711 0-1.194.303-1.448.908v4.5h-1.084v-6.34h1.055l.018.733c.355-.567.859-.85 1.511-.85.211 0 .371.027.48.082v1.008z" fill="#212121"/><path d="M24.333 24.667c-3.107 0-9.333 1.56-9.333 4.667v3.333h9.333v-3c0-1.133.44-3.12 3.16-4.627-1.16-.24-2.28-.373-3.16-.373m10 1.333C31.893 26 27 27.227 27 29.667v3h14.666v-3c0-2.44-4.893-3.667-7.333-3.667m-10-4a3.983 3.983 0 0 0 3.987-4c0-2.213-1.774-4-3.987-4s-4 1.787-4 4c0 2.214 1.787 4 4 4m10 1.334c1.84 0 3.32-1.494 3.32-3.334s-1.48-3.333-3.32-3.333a3.334 3.334 0 0 0 0 6.667" fill="#616161"/></g><g transform="translate(99 81)"><circle fill="#03A9F4" cx="8" cy="8" r="8"/><path fill="#FFF" d="M9.584 12H8.166V5.15l-2.092.715v-1.2l3.328-1.226h.182z"/></g><g transform="translate(252 164)"><circle fill="#03A9F4" cx="8" cy="8" r="8"/><path d="M11.465 12H5.729v-.979l2.841-3.1c.41-.456.702-.838.876-1.145.174-.306.261-.614.261-.922 0-.407-.114-.735-.343-.985-.228-.25-.536-.375-.923-.375-.46 0-.818.14-1.072.422-.254.281-.38.666-.38 1.154H5.563c0-.52.119-.987.355-1.403.236-.416.574-.74 1.014-.97.44-.23.946-.345 1.52-.345.828 0 1.482.208 1.96.624.479.416.718.99.718 1.725 0 .426-.12.872-.36 1.339-.24.467-.634.997-1.181 1.59l-2.086 2.233h3.96V12z" fill="#FFF"/></g><g transform="translate(91 204)"><circle fill="#03A9F4" cx="8" cy="8" r="8"/><path d="M7.375 7.084h.867c.438-.004.784-.117 1.04-.34.256-.223.384-.545.384-.967 0-.406-.106-.721-.32-.946-.212-.225-.537-.337-.975-.337-.383 0-.697.11-.943.331-.246.22-.37.509-.37.864H5.636c0-.437.116-.835.348-1.195.233-.36.557-.64.973-.84a3.168 3.168 0 0 1 1.398-.302c.851 0 1.52.213 2.006.641.487.428.73 1.023.73 1.784 0 .383-.122.744-.366 1.081-.245.338-.56.593-.947.765.47.16.826.412 1.07.756.244.344.366.754.366 1.23 0 .766-.263 1.375-.788 1.829-.526.453-1.216.68-2.071.68-.82 0-1.493-.22-2.016-.657-.524-.438-.785-1.02-.785-1.746h1.424c0 .375.126.68.377.914.252.234.591.351 1.017.351.442 0 .79-.117 1.043-.351.254-.234.38-.574.38-1.02 0-.449-.132-.795-.398-1.037-.265-.242-.66-.363-1.183-.363h-.838V7.084z" fill="#FFF"/></g><g transform="translate(99 274)"><circle fill="#03A9F4" cx="8" cy="8" r="8"/><path d="M9.545 8.959h1.06v1.143h-1.06V12H8.12v-1.898H4.436l-.041-.868 3.68-5.765h1.47v5.49zm-3.656 0H8.12V5.396l-.105.188-2.127 3.375z" fill="#FFF"/></g><g transform="translate(270 274)"><circle fill="#03A9F4" cx="8" cy="8" r="8"/><path d="M6.11 7.77l.462-4.301h4.582v1.23H7.756L7.52 6.74c.395-.227.84-.34 1.336-.34.813 0 1.445.26 1.896.779.451.52.677 1.218.677 2.097 0 .868-.25 1.558-.75 2.072-.5.513-1.186.77-2.057.77-.781 0-1.429-.221-1.942-.665-.514-.443-.792-1.028-.835-1.755h1.377c.054.414.203.732.445.952.242.221.559.331.95.331.437 0 .778-.156 1.022-.468.244-.313.366-.739.366-1.278 0-.52-.135-.93-.404-1.233-.27-.303-.641-.454-1.114-.454a1.86 1.86 0 0 0-.656.102c-.18.069-.375.203-.586.402L6.11 7.77z" fill="#FFF"/></g></g></g></svg>